# xmcd
#
# Track frame offsets:
#	182
#	18167
#	31920
#	46212
#	58290
#	71805
#	88260
#	105692
#	121780
#	139225
#	155535
#
# Disc length: 2347 seconds
#
# Revision: 15
# Processed by: cddbd v1.5.2PL0 Copyright (c) Steve Scherf et al.
# Submitted via: EasyCDDAExtractor 15.3.0.1
#
DISCID=9509290b
DTITLE=Luis Miguel - Segundo Romance
DYEAR=1994
DGENRE=Latin
TTITLE0=El Dia Que Me Quieras
TTITLE1=Sin Ti
TTITLE2=Somos Novios
TTITLE3=La Media Vuelta
TTITLE4=Solamente Una Vez
TTITLE5=Todo Y Nada
TTITLE6=Historia De Un Amor
TTITLE7=Como Yo Te Ame
TTITLE8=Nosotros
TTITLE9=Yo Se Que Volveras
TTITLE10=Delirio
EXTD=
EXTT0=
EXTT1=
EXTT2=
EXTT3=
EXTT4=
EXTT5=
EXTT6=
EXTT7=
EXTT8=
EXTT9=
EXTT10=
PLAYORDER=
